/* XPM */
static char *_7af47dc3d144616f0c2aafcb0d1a124ZWZ45mF6DQln23oV[] = {
/* columns rows colors chars-per-pixel */
"32 32 12 1 ",
"  c #623937",
". c #633A38",
"X c #693E3D",
"o c #6A3F3E",
"O c #265C42",
"+ c #683E3C",
"@ c #643A38",
"# c #683E3D",
"$ c #3E8948",
"% c #8BAF32",
"& c #FEE861",
"* c black",
/* pixels */
"     .XoooOoooooooooooX+.       ",
"     .XoooOOOooooooooX@.        ",
"    .@XoooOOOOoooooooX.         ",
"   .#XooooOOOOOooooooX.         ",
"...@XoooooOOOOOOoooooX@.        ",
"XXXXoooooooOOOOOOoooooX#.       ",
"oooooooooooOOOOOOooooooX@.      ",
"ooooooooooooOOOOO$ooooooX#.     ",
"ooooooXXXXXXoOOO$$oooooooX@.....",
"oooooX@....%%%%OOo%%%%ooooXXXXXX",
"ooooX#.   %%%%%%o%%%%%%ooooooooo",
"oooX@.   %%%%%%%%%%&&%%%oooooooo",
"oooX.   %%%%%%%%%%%%%&%%%ooooooo",
"oooX.   %%%%%%%%%%%%%%%%%ooooooo",
"oooX@. %%%%%%%%%%%%%%%%%%%oooooo",
"ooooX#.%%%%%%%%%%%%%%%%%%%Xooooo",
"oooooX@%%%%%%%%%%%%%%%%%%%Xooooo",
"ooooooX%%%%%%%%%%%%%%%%%%%oooooo",
"oooooooo%%%%%%%%%%%%%%%%%ooooooo",
"oooooooo%%%%%%%%%%%%%%%%%ooooooo",
"ooooooooo%%%%%%%%%%%%%%%oooooooo",
"oooooooooo%%%%%%%%%%%%%ooooooooo",
"XXooooooooo%%%%%%%%%%%ooXXXXXXoo",
".@Xoooooooooo%%%%%%%oooX@....@Xo",
" .#XooooooooooooooooXXX#.    .#X",
"  .@XooooooooooooooX@...      ..",
"   .XoooooooXXXXXXX#.           ",
"   .XooooooX@.......            ",
"   .XoooooX#.               ....",
"   .XooooX@.               .#XXX",
"   .XooooX@.              .@Xooo",
"   .XoooooX+.            .+Xoooo"
};
