/* XPM */
static char *_ad5473e3dd5417fdf0ea2dffe7ee06c0zfrd2OuRLhdQbM6[] = {
/* columns rows colors chars-per-pixel */
"32 32 12 1 ",
"  c #623937",
". c #633A38",
"X c #693E3D",
"o c #6A3F3E",
"O c #683E3C",
"+ c #643A38",
"@ c #683E3D",
"# c #265C42",
"$ c #3E8948",
"% c #8BAF32",
"& c #FEE861",
"* c black",
/* pixels */
"     .XoooooooooooooooXO.       ",
"     .XooooooooooooooX+.        ",
"    .+XooooooooooooooX.         ",
"   .@XoooooooooooooooX.         ",
"...+XooooooooooooooooX+.        ",
"XXXXooooooo#ooooooooooX@.       ",
"ooooooooooo###oooooooooX+.      ",
"ooooooooooo####oooooooooX@.     ",
"ooooooXXXXX#####oooooooooX+.....",
"oooooX+....######oooooooooXXXXXX",
"ooooX@.    .######oooooooooooooo",
"oooX+.      ######oooooooooooooo",
"oooX.       .#####$oXXXXoooooooo",
"oooX.      .@X###$$X+..+Xooooooo",
"oooX+.    .+%%%%##X%%%%.@Xoooooo",
"ooooX@.  .@%%%%%%X%%%%%%.+Xooooo",
"oooooX+..+%%%%%%%%%%&&%%%+Xooooo",
"ooooooXXX%%%%%%%%%%%%%&%%%oooooo",
"ooooooooo%%%%%%%%%%%%%%%%%oooooo",
"oooooooo%%%%%%%%%%%%%%%%%%%ooooo",
"oooooooo%%%%%%%%%%%%%%%%%%%ooooo",
"oooooooo%%%%%%%%%%%%%%%%%%%ooooo",
"XXoooooo%%%%%%%%%%%%%%%%%%%XXXoo",
".+Xoooooo%%%%%%%%%%%%%%%%%...+Xo",
" .@Xooooo%%%%%%%%%%%%%%%%%   .@X",
"  .+Xooooo%%%%%%%%%%%%%%%     ..",
"   .Xoooooo%%%%%%%%%%%%%        ",
"   .XooooooX%%%%%%%%%%%         ",
"   .XoooooX@. %%%%%%%       ....",
"   .XooooX+.               .@XXX",
"   .XooooX+.              .+Xooo",
"   .XoooooXO.            .OXoooo"
};
