/* XPM */
static char *_3879422305e4a5694a501a2ffb26781vrPuH0nGGBkkmv1r[] = {
/* columns rows colors chars-per-pixel */
"32 32 13 1 ",
"  c #623937",
". c #633A38",
"X c #693E3D",
"o c #6A3F3E",
"O c #683E3C",
"+ c #643A38",
"@ c #683E3D",
"# c #141412",
"$ c #BD9168",
"% c #ECCBAC",
"& c #825E3A",
"* c #4B3720",
"= c black",
/* pixels */
"     .XoooooooooooooooXO.       ",
"     .XooooooooooooooX+.        ",
"    .+XooooooooooooooX.         ",
"   .@Xooooooo########X.         ",
"...+Xooooooo#$$%%%%%%#+.        ",
"XXXXooooooo#$$%%%%%%%%#@.       ",
"oooooooooo#&$$%%%%%%%%%#+.      ",
"ooooooooo#&&$$%%%%%%%%%#X@.     ",
"ooooooXXX#&&&$$%%%%%%%%#oX+.....",
"oooooX+..#&&&&&$%%%%%%$#ooXXXXXX",
"ooooX@.  #*&&&&&&###$##*oooooooo",
"oooX+.   #*&&&*&&###%##*oooooooo",
"oooX.     #*&&*$&##*%*#*oooooooo",
"oooX.      #*&#&%%%$#&$#Xooooooo",
"oooX+.    .+####$%%%#$$#@Xoooooo",
"ooooX@.  .@X######*$$&# .+Xooooo",
"oooooX+..+##$$&*######  .+Xooooo",
"ooooooXXX#%%$$$$$&*##&#.@Xoooooo",
"ooooooooo#%%*&&$$$$**$#+Xooooooo",
"oooooooooo#&&$$$&&&**&#Xoooooooo",
"ooooooooooo#&&$$$$###$#ooooooooo",
"oooooooooooo##########oooooooooo",
"XXoooooooooo#&&#####ooooXXXXXXoo",
".+Xooooooooo#&&&**#&#ooX+....+Xo",
" .@Xooooooo#**&&&#&&#XX@.    .@X",
"  .+Xoooooo#&&###o#**#..      ..",
"   .Xooooo#$$&#XXX#*$$#         ",
"   .Xoooo##$$#.....#$$#         ",
"   .Xoooo#&&#      #&&#     ....",
"   .Xooo#$$&#      #&$$#   .@XXX",
"   .XooooX+.              .+Xooo",
"   .XoooooXO.            .OXoooo"
};
