/* XPM */
static char *_630cbb2a9684a25b581cad90f41dfc9Vm0KfiLlOJscGXdR[] = {
/* columns rows colors chars-per-pixel */
"32 32 13 1 ",
"  c #623937",
". c #633A38",
"X c #693E3D",
"o c #6A3F3E",
"O c #683E3C",
"+ c #643A38",
"@ c #141412",
"# c #683E3D",
"$ c #BD9168",
"% c #ECCBAC",
"& c #825E3A",
"* c #4B3720",
"= c black",
/* pixels */
"     .XoooooooooooooooXO.       ",
"     .XooooooooooooooX+.        ",
"    .+Xooooooo@@@@@@@@.         ",
"   .#Xooooooo@$$%%%%%%@         ",
"...+Xooooooo@$$%%%%%%%%@        ",
"XXXXooooooo@&$$%%%%%%%%%@       ",
"oooooooooo@&&$$$%%%%%%%%@.      ",
"oooooooooo@&&&$$$%%%%%%$@#.     ",
"ooooooXXXX@&&&&&&&@@@$@@*X+.....",
"oooooX+...@*&&&&&&@@@%@@*oXXXXXX",
"ooooX#.   @*&&&*&&@@*%*@*ooooooo",
"oooX+.     @*&&*$%%%$@&$@ooooooo",
"oooX.       @*&@&$%%%@$$@ooooooo",
"oooX.      .#@@@@@@*$$&@Xooooooo",
"oooX+.    .+Xoo@**@@@@@.#Xoooooo",
"ooooX#.  .#@@@@@@@@@    .+Xooooo",
"oooooX+..+@%%$$&*@@@@@@ .+Xooooo",
"ooooooXXXX@%%$$$$$&*@@&@#Xoooooo",
"ooooooooooo@**&&$$$$**$@Xooooooo",
"ooooooooooo@&&$$$&&&**&@oooooooo",
"oooooooooooo@&&$$$$@@@$@oooooooo",
"ooooooooooooo@@@@@@@@@@ooooooooo",
"XXoooooooooooo@@@**@ooooXXXXXXoo",
".+Xoooooooooo@&&@@@@@ooX+....+Xo",
" .#Xooooooooo@&&&**@&@X#.    .#X",
"  .+Xooooooo@**&&&@&&@..      ..",
"   .Xooooooo@&&@@@X@**@         ",
"   .Xoooooo@$$&@...@*$$@        ",
"   .XoooooX@$$@     @$$@    ....",
"   .XooooX@&&&@     @&&@   .#XXX",
"   .XooooX@&&@      @&&@  .+Xooo",
"   .Xoooo@$$&@      @&$$@.OXoooo"
};
