/* XPM */
static char *_8efb19819284adbbc416f4f33b55a511j6RxDtdK4hsUGxz[] = {
/* columns rows colors chars-per-pixel */
"50 50 228 2 ",
"   c None",
".  c #03040A",
"X  c #08080E",
"o  c #15040C",
"O  c #0A0912",
"+  c #140E12",
"@  c #18161A",
"#  c #2D1915",
"$  c #361B12",
"%  c #381F19",
"&  c #2F110F",
"*  c #392113",
"=  c #23201C",
"-  c #17192E",
";  c #2D2424",
":  c #392824",
">  c #491819",
",  c #412215",
"<  c #49291A",
"1  c #522A1A",
"2  c #59371E",
"3  c #653C1C",
"4  c #492B23",
"5  c #592423",
"6  c #4E3A28",
"7  c #583B24",
"8  c #583F3F",
"9  c #692B27",
"0  c #623E24",
"q  c #683A2A",
"w  c #783834",
"e  c #74342E",
"r  c #5C4637",
"t  c #5F4029",
"y  c #694526",
"u  c #6B4C2E",
"i  c #65442A",
"p  c #744C2B",
"a  c #664937",
"s  c #6A523C",
"d  c #6B5137",
"f  c #74553C",
"g  c #755A3E",
"h  c #7C5C3C",
"j  c #7A5532",
"k  c #79502F",
"l  c #564942",
"z  c #695646",
"x  c #755A44",
"c  c #6A5A50",
"v  c #7C6244",
"b  c #7B624A",
"n  c #7E684E",
"m  c #7D6956",
"M  c #823633",
"N  c #853A36",
"B  c #903D3B",
"V  c #A53C2F",
"C  c #82532B",
"Z  c #825E3C",
"A  c #885D35",
"S  c #9F463D",
"D  c #AB4B37",
"F  c #85623E",
"G  c #8B643D",
"H  c #8B693F",
"J  c #93693D",
"K  c #946738",
"L  c #835E41",
"P  c #90534C",
"I  c #A25145",
"U  c #846443",
"Y  c #8D6A44",
"T  c #8D6D4B",
"R  c #86684C",
"E  c #926C42",
"W  c #926F4C",
"Q  c #986E42",
"!  c #8D714F",
"~  c #957147",
"^  c #9D7344",
"/  c #93724D",
"(  c #99754C",
")  c #9C7A4D",
"_  c #846C53",
"`  c #896F56",
"'  c #8A735B",
"]  c #8B7457",
"[  c #957552",
"{  c #987754",
"}  c #9B7B53",
"|  c #927C5B",
" . c #9B7C5A",
".. c #97635D",
"X. c #A37C4D",
"o. c #A07447",
"O. c #A37D53",
"+. c #A27F5A",
"@. c #927B61",
"#. c #987F62",
"$. c #8D7E69",
"%. c #AC736C",
"&. c #9B815C",
"*. c #A38155",
"=. c #AA8354",
"-. c #A4855C",
";. c #AB865A",
":. c #AC895C",
">. c #A7885D",
",. c #B38A56",
"<. c #B38B5B",
"1. c #BB945F",
"2. c #B0814C",
"3. c #9C8462",
"4. c #9C866B",
"5. c #9B8A77",
"6. c #A48562",
"7. c #A88664",
"8. c #A58A65",
"9. c #AB8C63",
"0. c #A38B6A",
"q. c #AB8E6A",
"w. c #B28F63",
"e. c #AD926C",
"r. c #AE9267",
"t. c #B49164",
"y. c #BA9564",
"u. c #B3956C",
"i. c #B9956A",
"p. c #BC9A6D",
"a. c #B7996C",
"s. c #A38E74",
"d. c #A18C7D",
"f. c #AD9472",
"g. c #AC947A",
"h. c #A79378",
"j. c #B39673",
"k. c #B49974",
"l. c #BB9C74",
"z. c #B59C7B",
"x. c #BA9D7C",
"c. c #BCA27D",
"v. c #BAA37A",
"b. c #C39E6D",
"n. c #C39E71",
"m. c #C2A275",
"M. c #C2A47C",
"N. c #C7A87E",
"B. c #CBAA7C",
"V. c #C9A578",
"C. c #CAA067",
"Z. c #AE9984",
"A. c #B49D82",
"S. c #BA9F81",
"D. c #B19E8B",
"F. c #BCA383",
"G. c #BEA985",
"H. c #B6A58D",
"J. c #BBA68A",
"K. c #BFAA8B",
"L. c #B7A183",
"P. c #BDAC93",
"I. c #AEA18C",
"U. c #C1A683",
"Y. c #C3AA85",
"T. c #CAAD84",
"R. c #C0A688",
"E. c #C4AC8B",
"W. c #C9AE8B",
"Q. c #CBB28C",
"!. c #CAB38B",
"~. c #D0B58D",
"^. c #D3BA8E",
"/. c #D3B687",
"(. c #C4AD91",
"). c #C5B294",
"_. c #CBB594",
"`. c #CDB895",
"'. c #C2B39A",
"]. c #CAB69B",
"[. c #CCBA9C",
"{. c #D3B792",
"}. c #D3BB95",
"|. c #D2BD9A",
" X c #D8BD93",
".X c #D3A68F",
"XX c #CBBCA2",
"oX c #D2BEA1",
"OX c #D8BFA0",
"+X c #D6C19C",
"@X c #D9C49E",
"#X c #D8C196",
"$X c #CEC1A4",
"%X c #CDC0AF",
"&X c #D4C3A3",
"*X c #DAC5A2",
"=X c #DBCAA6",
"-X c #D3C4AA",
";X c #D9C7AA",
":X c #DBCBAC",
">X c #D6C8AC",
",X c #DED2AF",
"<X c #D6CCB4",
"1X c #DBCCB3",
"2X c #DCCEBA",
"3X c #DED2BB",
"4X c #DFD2B4",
"5X c #E1CEAC",
"6X c #E1CAA4",
"7X c #E1D1AD",
"8X c #E2D3B4",
"9X c #E3D5BB",
"0X c #E6D9BE",
"qX c #E9D9B9",
"wX c #E9D7BE",
"eX c #E0CEB2",
"rX c #DED4C3",
"tX c #E5D9C3",
"yX c #E9DAC4",
"uX c #E5DCCA",
"iX c #E9DECA",
"pX c #E0D5C2",
"aX c #E8DED1",
"sX c #ECE1CD",
"dX c #E7E0CD",
"fX c #EDE3D5",
"gX c #E6E2D7",
"hX c #F2E5D6",
/* pixels */
"                                                                                                    ",
"                                    aXaXyX8X9X1XwX9XyXyXsX                                          ",
"                              fXyX;X|.W.Q.W.W._.Q.]._.|.eXwXyXfX                                    ",
"                          fXuX;X_.Q.T.k.w.w.r.l.l.l.p.p.l.W.=XyXfXhX                                ",
"                        0X,X#Xc.).}.e.Y *.*.;.w.7.w.j.u.p.p.T.Q.#XyXyX                              ",
"                      +X}.T.Y.Y.9.* . + *.l.p.j.i.t.` : 8 oXQ.M.M.{. X=X                            ",
"                    $X#Xp.~ ( ) -.9.x G.=X&X|.OX*X|.x O - $ n.T.T.n.2.b.qX                          ",
"                  1XN.T.K 2 e.U.).`.}.&X5.c z 4.|.6XQ.j.+.F.W.l.b.T.p.o.B.hX                        ",
"                  ^.T.Y.C i `.=XoX&XXXm O . . @ z x.OXW.OX[.}.{.}.W.O.o.,.qX                        ",
"                yX*Xi.!.y ! ).|.&X<XG.5.O . . O $.S.oX:X}.|.eX5X1XJ.{ y K ^.                        ",
"                  =Xb.~.3 -.v.[.].$XS.' ; O + : ' A.(.;X-X*X*X6X5X|.6.0 C C.                        ",
"                    Y.W.i &.e.).| Z.).5.> o o 8 Z.(.oX;XXX(.1X*XoX{.p.0 C X.                        ",
"                    ;XX.0 Y 8.Y.e.u O 8 > & o & 5 1 w @ 1 E.;X}.~.{.x.Z A 2.                        ",
"                      (.{ [ 8.f.v.6.4 4 e 5 > 9 P R ; f T.|.|.W.!.}.{.XXK ,.rX                      ",
"                      2Xk.>.e.9.9.q.[ ..e w 9 M %.: 7.{.|.{.~.~.T.}.;X2X  U.                        ",
"                        ].l.e.e.u.6.n.P M N e B %.7._.oX|.|.T.Y.Q.&X8X                              ",
"                      3X[.K.L.e.q.3.c.S B w M I .X.X].]._._.l.M.!.=X                                ",
"                      3X+XG.G.k.6.&.z.].I V D M.(.].J.F.l.l.n.N.&X=X                                ",
"                    dX>X$X$X).z.r.k.].z.z.].P.K.S.L.S.j.M.Y.Q._.}.9XdX                              ",
"                  yX:X!.G.K.K.L.z.0.g.K.).(.R.L.q.z.F.U.U.W.|.}.*X7XiX                              ",
"                  tX>XW.R.).F.v.v.L.z.A.L.e.`.F.6.z.c.).W.W.~.+X:X7XtX                              ",
"                  3X-X).c.j.u.k.(.h.r.0.9.F.c.8.7.9.v.M.p.m.Q.#X=X,X0XsX                            ",
"                fXtX<X`.E.c.K.z.Y F.g.e.x.c.f.9.e.R.x.c.y.y.!.,X@X=XyXyXhX                          ",
"                dX3X:X[.E.[.J.9.[.v.-.k.R.Y.p.u.F._.Q.W._.|.&X;X=X7X9XqXqXsX                        ",
"              tX4X>X[.XX-X].`.v.e.:.z.E.M.p.U.U.Y.E.).).{.].].|.=X4XtXyX8XsXhX                      ",
"              uX,X$X[.F.R.L._.].K.k.)._.Y.Y.R.U.j.F.R.E.).{.*X_.`.:XyXsXyXyXsXfX                    ",
"              gXrX>X).l.r.v.E.].G.`.[.[.R.c.z.7.7.F.R.Q._.Y.|.*X=X:XpX9X9X9X0XqXsX                  ",
"                3X>X-X[.W.K.'.<X&X$X].z.e.9.9.l.c.W.E.W.E.|.}.Q.Q.@X9X9X8X7X7X7X7XiX                ",
"                rX3X$X(.).P.$X-X[.[.).G.R.F.R.z.Y.U.E.M.Y.l.T.`.*X+X:X9X8X5X*X*X5XqXsX              ",
"                3X&XK.k.F.P.<X-X>X).F.e.x.z.k.k.Y.z.c.p.Y.Q.Q.#X+X#X=X9X:X@X}./.@X7XqX              ",
"                1XR.8.-.e.P.$X%XXXE.l.j.r.8.>.k.c.u.U.x.Y.T.Q._._.&X;X9X1X|. X!.^.@X5X8X            ",
"                ;Xu.) / } H.%X-X'.]._.L.f.6.9.} u.8.z.Y.Y.Q.M.W.M.Q.@XpX2X{.T.T.^. X*X7XyX          ",
"                *Xu.&.~ Y ] 4.'.P.K.'.v.k.&.k.e.&.) -.k.p.u.Y.n.y.M.*X9X9X_.M./.}.@X}.=XwX          ",
"                &Xq.~ G j H 4.H.%XP.).K.v.f.0.e.r.} t.v.t.t.l.m.b.Q.&X;X;X`.V.T.}.@X*X@XqXiX        ",
"              uXF.j.{ Y j y g P.P.P.XXP.L.0.0.&.8.8.t.w.w.:.p.M.T.Q.:X<X{.N.B.B.B.T.^.#X=XwXsX      ",
"              2XE.u.} G j y t P.I.Z.P.H.Z.3.4.3.T -.9.;.*.w.p.M.N.W.&XoXE.n.m.n.n.n.B.B.^.6XtX      ",
"              &Xc.&.( T F j u s.5.Z.I.I.4.&.| g [ -.>.-.*.t.i.n.m.Q.&XT.l.<.1.b.b.b.V.m.b.b.B.8X    ",
"              -Xv.>.[ W W h u 4.3.@.s.s.@.! U u T -.=.-.:.:.<.1.m.|.oXm.y.,.<.t.<.,.,.=.b.B. X6X8X  ",
"              ].F.} / W { U F 0.4.' | ' _ ! v u ! -.} *.,.=.y.y.m.|.oXt.,.<.X.X.^ K ^ y.m.!.=X8XiX  ",
"              ).l.&.[ / { T _ n @._ ' _ n v g u / ~ } X.:.:.y.p.Y.`.M.w.X.o.Q E o.o.:.B.Q.~.@X7XsX  ",
"      <X[.E.K.R.8.( W W T L 7 a z a r n b v f h / E E X.;.;.i.N.T._.r.O.G J Q X.t.y.Y.M.Q.&X;X4X    ",
"  [.).4.3.v oXz.>./ W T Z h $ : # & 4 s d 6 * ! W E ( O.:.:.n.M.).f.Y G O.O.;.9.Q.M.E.c.T.|.&X9X    ",
"  h._ s @ '.W.q.8.{ / / x a s _ ` h u 2 , * $ / Y Y ~ ) =.w.l.].z.+.{ ( { *.7.r.u.l.S.Y.E.|.|.3X    ",
"    ; @ l 1X(.(.e.T [ T d s | s.0.[ Z i , $ < G Z Y ( ( =.w.M.E.R.[ Z F 7. . .0.q.x.j.j.K.).        ",
"        %X-XL.g.g.g | g c d.k.k.0. .h 2 , $ h Y G H ) *.=.y.W.S.k k k ..! R U #.0.Z.                ",
"          0.j.0.8.6 x 6 z q.0.3.[ T u < # f / E G A Q X.=.j.U.(.@.{                                 ",
"                              v b i < # 0.{ 8.( p [ O.-.F.T.].                                      ",
"                                      &.t f.L.r g.z.g.j.{.|.                                        ",
"                                      s _ e.h.r l.j._ 6.(.                                          ",
"                                                5.                                                  "
};
