/* XPM */
static char *_92aed5333564bcdc9a73ad0c8ca8209fKM1FdTsjNFcYDRt[] = {
/* columns rows colors chars-per-pixel */
"32 32 8 1 ",
"  c #623937",
". c #633A38",
"X c #693E3D",
"o c #6A3F3E",
"O c #683E3C",
"+ c #643A38",
"@ c #683E3D",
"# c white",
/* pixels */
"     .XoooooooooooooooXO.       ",
"     .XooooooooooooooX+.        ",
"    .+XooooooooooooooX.         ",
"   .@XoooooooooooooooX.         ",
"...+XooooooooooooooooX+.        ",
"XXXXooooooooooooooooooX@.       ",
"oooooooooooooooooooooooX+.      ",
"ooooooooooooooooooooooooX@.     ",
"ooooooXXXXXXoooooooooooooX+.....",
"oooooX+....+XoooooooooooooXXXXXX",
"ooooX@.    .@Xoooooooooooooooooo",
"oooX+.      .+Xooooooooooooooooo",
"oooX.       .+XoooooXXXXoooooooo",
"oooX.      .@XoooooX+..+Xooooooo",
"oooX+.    .+XoooooX@.  .@Xoooooo",
"ooooX@.  .@XoooooX+.    .+Xooooo",
"oooooX+..+XooooooX+.    .+Xooooo",
"ooooooXXXXooooooooX@.  .@Xoooooo",
"oooooooooooooooooooX+..+Xooooooo",
"ooooooooooooooooooooXXXXoooooooo",
"oooooooooooooooooooooooooooooooo",
"oooooooooooooooooooooooooooooooo",
"XXooooooooooooooooooooooXXXXXXoo",
".+XooooooooooooooooooooX+....+Xo",
" .@XooooooooooooooooXXX@.    .@X",
"  .+XooooooooooooooX+...      ..",
"   .XoooooooXXXXXXX@.           ",
"   .XooooooX+.......            ",
"   .XoooooX@.               ....",
"   .XooooX+.               .@XXX",
"   .XooooX+.              .+Xooo",
"   .XoooooXO.            .OXoooo"
};
