/* XPM */
static char *fb02250a1a204136a59879bb36515fc4HOMv7EbASOLnk3Bw[] = {
/* columns rows colors chars-per-pixel */
"32 32 13 1 ",
"  c #623937",
". c #633A38",
"X c #693E3D",
"o c #6A3F3E",
"O c #683E3C",
"+ c #643A38",
"@ c #04193F",
"# c #683E3D",
"$ c #F489F6",
"% c #780BF7",
"& c #D840FB",
"* c #FCFEFE",
"= c black",
/* pixels */
"     .XoooooooooooooooXO.       ",
"     .XooooooooooooooX+.        ",
"    .+Xooooo@@ooooo@@X.         ",
"   .#Xooooo@$$@ooo@%%@.         ",
"...+Xooooo@$$$$@o@%%%@+.        ",
"XXXXoooooo@$$$$$@@%%%%@#.       ",
"ooooooooooo@$$$&&&&%%%@X+.      ",
"ooooooooooo@&$$$$$&&&%%@X#.     ",
"ooooooXXXX@&$$$$$$$&&&%@oX+.....",
"oooooX+...@$$$$$******%%@oXXXXXX",
"ooooX#.  @&$$$$********%@ooooooo",
"oooX+.   @$$$$**@@@***@@%@oooooo",
"oooX.    @$$$$*@@**@*@@*@@oooooo",
"oooX.    @$$$$*@@**@*@@*@@oooooo",
"oooX+.   @$$$$*@@@@@*@@@@@oooooo",
"ooooX#.  @&$$$$*@@@***@@%@Xooooo",
"oooooX+..+@$$$$*********@+Xooooo",
"ooooooXXXX@&$$$$&******%@Xoooooo",
"ooooooooooo@$$$$$&&&%%%@Xooooooo",
"ooooooooooo@$$$$$$***%@Xoooooooo",
"oooooooooo@$$$$%$****%%@oooooooo",
"oooooooooo@$$$$%$*****%@oooooooo",
"XXooooooo@$$$$%&******%%@XXXXXoo",
".+Xoooooo@$$$$%&******%%@....+Xo",
" .#Xooooo@$$$%&$******%%@    .#X",
"  .+Xooooo@%%&&$$****%@@      ..",
"   .Xoooooo@&&$$$&&&%%@         ",
"   .Xoooooo@$$$$@@%%%%@         ",
"   .XoooooX@$$$$@@%%%@      ....",
"   .XooooX+@$$$@ @%%%@     .#XXX",
"   .XooooX+.              .+Xooo",
"   .XoooooXO.            .OXoooo"
};
