/* XPM */
static char *_2d1d3a437d74305f2d7790788ba8cacNzf1JmaxtBK0cMdd[] = {
/* columns rows colors chars-per-pixel */
"32 32 13 1 ",
"  c #623937",
". c #633A38",
"X c #693E3D",
"o c #6A3F3E",
"O c #683E3C",
"+ c #04193F",
"@ c #643A38",
"# c #F489F6",
"$ c #683E3D",
"% c #780BF7",
"& c #D840FB",
"* c #FCFEFE",
"= c black",
/* pixels */
"     .XoooooooooooooooXO.       ",
"     .Xooooo+++ooooooX@.        ",
"    .@Xoooo+###+ooo+++.         ",
"   .$Xooooo+###+oo+%%%+         ",
"...@Xoooooo+####+o+%%%+.        ",
"XXXXooooooo+####+++%%%+$.       ",
"ooooooooooo+###&&&&%%%%+@.      ",
"ooooooooooo+&#####&&&%%+X$.     ",
"ooooooXXXX+&#######&&&%+oX@.....",
"oooooX@...+#####******%%+oXXXXXX",
"ooooX$.  +&####********%+ooooooo",
"oooX@.   +####**+++***++%+oooooo",
"oooX.    +####*++**+*++*++oooooo",
"oooX.    +####*+++++*+++++oooooo",
"oooX@.   +####*+++++*+++++oooooo",
"ooooX$.  +&####*+++***++%+Xooooo",
"oooooX@..@+####*********+@Xooooo",
"ooooooXXXX+&####&******%+Xoooooo",
"ooooooooooo+#####&&&%%%+Xooooooo",
"oooooooooo+#######***%+Xoooooooo",
"oooooooo++#####%#****%%+oooooooo",
"ooooooo+######%&#*****%%++oooooo",
"XXooooo+#####%&#******%%%%+XXXoo",
".@Xoooo+####%&##******%%%%+..@Xo",
" .$Xoooo+++%&&##******+%%%+  .$X",
"  .@Xoooooo+&####****%++++    ..",
"   .Xoooooo+#####&&&%%+         ",
"   .Xoooooo+####++%%%%+         ",
"   .XoooooX+####++%%%+      ....",
"   .XooooX@+###+ +%%%+     .$XXX",
"   .XooooX@.              .@Xooo",
"   .XoooooXO.            .OXoooo"
};
