/* XPM */
static char *_a7f71c4586f4cb4f15133d926d1c2cblkC518dsrdH0EwCk[] = {
/* columns rows colors chars-per-pixel */
"32 32 112 2 ",
"   c None",
".  c #1C5633",
"X  c #1D5634",
"o  c #1E5635",
"O  c #1E5736",
"+  c #1E5835",
"@  c #1F5836",
"#  c #323F4C",
"$  c #333F4C",
"%  c #33404D",
"&  c #34414F",
"*  c #34424F",
"=  c #2C5047",
"-  c #384656",
";  c #384756",
":  c #384757",
">  c #394757",
",  c #394857",
"<  c #394758",
"1  c #394858",
"2  c #3A4858",
"3  c #3A4958",
"4  c #3A4959",
"5  c #3B4A5A",
"6  c #3D4D5D",
"7  c #3D4D5E",
"8  c #3A5F57",
"9  c #2A7047",
"0  c #2A7147",
"q  c #2A7048",
"w  c #2A7148",
"e  c #2B7148",
"r  c #2D774C",
"t  c #386F57",
"y  c #2F7C50",
"u  c #307D50",
"i  c #3F4F61",
"p  c #404F60",
"a  c #404F61",
"s  c #405061",
"d  c #405062",
"f  c #415163",
"g  c #435364",
"h  c #435466",
"j  c #445566",
"k  c #455567",
"l  c #455667",
"z  c #435F64",
"x  c #455669",
"c  c #465768",
"v  c #475768",
"b  c #465669",
"n  c #45566A",
"m  c #46566A",
"M  c #46576A",
"N  c #46586B",
"B  c #48596B",
"V  c #4A5B6C",
"C  c #4B5C6E",
"Z  c #4B5C6F",
"A  c #4C5D6F",
"S  c #4C5E6F",
"D  c #4B5D70",
"F  c #4E5F72",
"G  c #466267",
"H  c #466D66",
"J  c #476D67",
"K  c #466E66",
"L  c #476E67",
"P  c #4E6073",
"I  c #4F6173",
"U  c #4F6174",
"Y  c #506275",
"T  c #506276",
"R  c #516376",
"E  c #516377",
"W  c #526476",
"Q  c #536576",
"!  c #526577",
"~  c #536677",
"^  c #546677",
"/  c #546678",
"(  c #55677A",
")  c #576A7D",
"_  c #596C7E",
"`  c #596C7F",
"'  c #596D7F",
"]  c #527075",
"[  c #368959",
"{  c #368A59",
"}  c #368A5A",
"|  c #368B5A",
" . c #596D80",
".. c #5A6D80",
"X. c #5C6F82",
"o. c #5E7285",
"O. c #5F7285",
"+. c #5E7385",
"@. c #5F7385",
"#. c #5F7386",
"$. c #6E8396",
"%. c #6D8496",
"&. c #6E8496",
"*. c #6E8597",
"=. c #6F8597",
"-. c #6F8498",
";. c #6F8598",
":. c #6F8698",
">. c #708498",
",. c #708598",
"<. c #708599",
"1. c #708698",
/* pixels */
"w w w w w w w w w w w w w w w w w w w w w w w w w w w w w w q w ",
"y y u r w w w w w w w r u y u r w w w r y y y y u r w w w r u y ",
"[ [ [ u 9 w w w w w 9 u [ [ [ u 9 w 9 u [ [ [ [ [ u w w q u [ [ ",
"w e w r u r w w w r u r w w w r u u u r w w w w w r u u u r w w ",
"o o o 9 [ u 9 w 9 u [ 9 o o o 9 [ [ [ 9 o + o o o w [ [ [ w o o ",
"L K K t w r u u y r w t J K L t w e 9 t L K K K K t w w w t J K ",
"$.$.>.K . 9 [ [ [ q . K >.$.*.L + @ o K >.$.$.$.-.L o + o K >.$.",
"O.O.O.] K t w e w t K ] O.O.O.G = 8 K ] O.O.O.O.O.G = 8 K ] O.O.",
"U U U O.-.L + + o K -.O.I I T l , ^ =.@.I I I I T m < / >.@.T I ",
"U U U ) _ G = 8 K ] O.) Y T T l 4 A #.) T T T T U l ; A #.) T T ",
"T T U D m s 4 ~ -.O.U T T T ~ N , l T T T T T T T l , l U U Y Y ",
"Z D D m i 7 ; V ..~ D D Z Z Z s < g Z Z Z F T U T Z l l l V Z Z ",
"N m N i ; , ; i m N N m N m m s ; a m N m D ~ U T T T l ; i m N ",
"s s i V ~ ^ ~ Z s s s s s s s V / V s s s g l l l l l A ^ V s s ",
"4 , ; ~ *.*.*.~ ; < < , 4 , ; ~ >.^ ; < < , < ; ; ; ; ~ *.^ ; 4 ",
"4 m ~ _ O.O.O.) ~ ~ ~ m 4 m ^ _ @.) ~ ^ ~ ^ ^ ^ ^ / ^ _ @.Y a 7 ",
"4 ~ *.O.U I I O.$.$.*.^ , ^ *.@.I @.*.*.$.*.$.*.$.*.-.@.U Z N s ",
", Z @.' T T U ) @.@._ Z , A @.) U ) O.......' ' ' ' _ ~ Z N i 7 ",
", h U U T T T T I V m s 4 l T T T T U D m N m N m m m N N 7 4 , ",
"~ A l V Z Z D D D m s 7 4 s D Z Z D Z m s i i i i i i i s Z ~ ~ ",
"*.^ ; s m N m N m 7 , 4 , s m N N N N a ; , ; : 4 , 4 , ; ~ *.*.",
"#.~ m s s i s s i Z ~ ~ ~ V s s s s s V ~ ^ ~ ~ ~ c , c ~ _ O.O.",
"I Y ~ l , 4 ; ; ; ~ *.*.*.^ ; 4 4 , ; ^ *.*.%.%.*.~ ; ~ -.O.I I ",
"T Y T l , m ~ ~ ~ ' O.O.O.T m 7 , N ^ ) O.O.O.O.O.~ h P ~ ~ U U ",
"Y Y ~ l ; ~ *.*.-.@.U U U U ~ l , ~ -.@.I T T T U U T m ; l T T ",
"Z Z Z g , V .._ _ ~ Z D D D F s , Z ..! Z D Z D D D D g , g D A ",
"N m N p 4 s m m m N N m N N m s 4 s N m N m m N N m N s , s m N ",
"m N m s 4 7 s s s h m m N N N s 4 7 s s s s s s s s s 7 4 s N m ",
"m N N s 4 4 4 4 4 s N N m N N s 4 4 4 4 4 4 4 4 4 4 4 4 4 s N N ",
"s s s 4 $ % % % % 4 s s s s s 4 # % % % % % % % % % % % $ 4 s s ",
"4 4 4 %           & 4 4 4 4 4 %                           & 4 4 ",
"& & &               & & & & &                               & & "
};
